# 3ds Max Wavefront OBJ Exporter v0.97b - (c)2007 guruware
# File Created: 14.05.2014 02:00:18

mtllib projectile_545.mtl

#
# object default
#

v  0.0926 0.0000 -0.1311
v  0.0926 0.0000 -0.1453
v  0.0802 0.0461 -0.1453
v  0.0802 0.0461 -0.1311
v  0.0802 -0.0461 -0.1311
v  0.0802 -0.0461 -0.1453
v  0.0461 -0.0802 -0.1311
v  0.0461 -0.0802 -0.1453
v  0.0000 -0.0926 -0.1311
v  0.0000 -0.0926 -0.1453
v  -0.0461 -0.0802 -0.1453
v  -0.0461 -0.0802 -0.1311
v  -0.0802 -0.0461 -0.1453
v  -0.0802 -0.0461 -0.1311
v  -0.0926 0.0000 -0.1453
v  -0.0926 0.0000 -0.1311
v  -0.0802 0.0461 -0.1453
v  -0.0802 0.0461 -0.1311
v  -0.0461 0.0802 -0.1453
v  -0.0461 0.0802 -0.1311
v  0.0000 0.0926 -0.1453
v  0.0000 0.0926 -0.1311
v  0.0461 0.0802 -0.1311
v  0.0461 0.0802 -0.1453
v  0.0963 0.0000 -0.1256
v  0.0835 0.0480 -0.1256
v  0.0835 -0.0480 -0.1256
v  0.0480 -0.0835 -0.1256
v  0.0000 -0.0963 -0.1256
v  -0.0480 -0.0835 -0.1256
v  -0.0835 -0.0480 -0.1256
v  -0.0963 0.0000 -0.1256
v  -0.0835 0.0480 -0.1256
v  -0.0480 0.0835 -0.1256
v  0.0000 0.0963 -0.1256
v  0.0480 0.0835 -0.1256
v  0.0937 0.0000 -0.0077
v  0.0809 0.0469 -0.0077
v  0.0809 -0.0469 -0.0077
v  0.0469 -0.0809 -0.0077
v  0.0000 -0.0937 -0.0077
v  -0.0469 -0.0809 -0.0077
v  -0.0809 -0.0469 -0.0077
v  -0.0937 0.0000 -0.0077
v  -0.0809 0.0469 -0.0077
v  -0.0469 0.0809 -0.0077
v  0.0000 0.0937 -0.0077
v  0.0469 0.0809 -0.0077
v  0.0853 -0.0000 0.1102
v  0.0739 0.0425 0.1102
v  0.0739 -0.0425 0.1102
v  0.0425 -0.0739 0.1102
v  0.0000 -0.0853 0.1102
v  -0.0425 -0.0739 0.1102
v  -0.0739 -0.0425 0.1102
v  -0.0853 -0.0000 0.1102
v  -0.0739 0.0425 0.1102
v  -0.0425 0.0739 0.1102
v  0.0000 0.0853 0.1102
v  0.0425 0.0739 0.1102
v  0.0688 -0.0000 0.2281
v  0.0597 0.0344 0.2281
v  0.0597 -0.0344 0.2281
v  0.0344 -0.0597 0.2281
v  0.0000 -0.0688 0.2281
v  -0.0344 -0.0597 0.2281
v  -0.0597 -0.0344 0.2281
v  -0.0688 -0.0000 0.2281
v  -0.0597 0.0344 0.2281
v  -0.0344 0.0597 0.2281
v  0.0000 0.0688 0.2281
v  0.0344 0.0597 0.2281
v  0.0491 -0.0000 0.3459
v  0.0425 0.0245 0.3459
v  0.0425 -0.0245 0.3459
v  0.0245 -0.0425 0.3459
v  0.0000 -0.0491 0.3459
v  -0.0245 -0.0425 0.3459
v  -0.0425 -0.0245 0.3459
v  -0.0491 -0.0000 0.3459
v  -0.0425 0.0245 0.3459
v  -0.0245 0.0425 0.3459
v  0.0000 0.0491 0.3459
v  0.0245 0.0425 0.3459
v  0.0260 -0.0000 0.4638
v  0.0227 0.0132 0.4638
v  0.0227 -0.0132 0.4638
v  0.0132 -0.0227 0.4638
v  0.0000 -0.0260 0.4638
v  -0.0132 -0.0227 0.4638
v  -0.0227 -0.0132 0.4638
v  -0.0260 -0.0000 0.4638
v  -0.0227 0.0132 0.4638
v  -0.0132 0.0227 0.4638
v  0.0000 0.0260 0.4638
v  0.0132 0.0227 0.4638
v  0.0194 -0.0000 0.4726
v  0.0168 0.0095 0.4726
v  0.0168 -0.0095 0.4726
v  0.0095 -0.0168 0.4726
v  0.0000 -0.0194 0.4726
v  -0.0095 -0.0168 0.4726
v  -0.0168 -0.0095 0.4726
v  -0.0194 -0.0000 0.4726
v  -0.0168 0.0095 0.4726
v  -0.0095 0.0168 0.4726
v  0.0000 0.0194 0.4726
v  0.0095 0.0168 0.4726
v  0.0077 -0.0000 0.4785
v  0.0066 0.0040 0.4785
v  0.0066 -0.0040 0.4785
v  0.0040 -0.0066 0.4785
v  0.0000 -0.0077 0.4785
v  -0.0040 -0.0066 0.4785
v  -0.0066 -0.0040 0.4785
v  -0.0077 -0.0000 0.4785
v  -0.0066 0.0040 0.4785
v  -0.0040 0.0066 0.4785
v  0.0000 0.0077 0.4785
v  0.0040 0.0066 0.4785
v  0.0000 0.0040 0.4785
v  0.0000 0.0066 0.4785
v  0.0000 -0.0000 0.4785
v  0.0000 -0.0040 0.4785
v  0.0000 -0.0066 0.4785
v  -0.0835 -0.0480 -0.1508
v  -0.0480 -0.0835 -0.1508
v  0.0000 -0.0963 -0.1508
v  0.0480 -0.0835 -0.1508
v  0.0835 -0.0480 -0.1508
v  0.0963 0.0000 -0.1508
v  0.0835 0.0480 -0.1508
v  0.0480 0.0835 -0.1508
v  0.0000 0.0963 -0.1508
v  -0.0480 0.0835 -0.1508
v  -0.0835 0.0480 -0.1508
v  -0.0963 0.0000 -0.1508
v  -0.0802 -0.0461 -0.2680
v  -0.0461 -0.0802 -0.2680
v  0.0000 -0.0926 -0.2680
v  0.0461 -0.0802 -0.2680
v  0.0802 -0.0461 -0.2680
v  0.0926 0.0000 -0.2680
v  0.0802 0.0461 -0.2680
v  0.0461 0.0802 -0.2680
v  0.0000 0.0926 -0.2680
v  -0.0461 0.0802 -0.2680
v  -0.0802 0.0461 -0.2680
v  -0.0926 0.0000 -0.2680
v  -0.0761 -0.0439 -0.3375
v  -0.0439 -0.0761 -0.3375
v  0.0000 -0.0879 -0.3375
v  0.0439 -0.0761 -0.3375
v  0.0761 -0.0439 -0.3375
v  0.0879 0.0000 -0.3375
v  0.0761 0.0439 -0.3375
v  0.0439 0.0761 -0.3375
v  0.0000 0.0879 -0.3375
v  -0.0439 0.0761 -0.3375
v  -0.0761 0.0439 -0.3375
v  -0.0879 0.0000 -0.3375
v  -0.0615 -0.0355 -0.4693
v  -0.0355 -0.0615 -0.4693
v  0.0000 -0.0710 -0.4693
v  0.0355 -0.0615 -0.4693
v  0.0615 -0.0355 -0.4693
v  0.0710 0.0000 -0.4693
v  0.0615 0.0355 -0.4693
v  0.0355 0.0615 -0.4693
v  0.0000 0.0710 -0.4693
v  -0.0355 0.0615 -0.4693
v  -0.0615 0.0355 -0.4693
v  -0.0710 0.0000 -0.4693
v  -0.0531 -0.0308 -0.4785
v  -0.0308 -0.0531 -0.4785
v  0.0000 -0.0615 -0.4785
v  0.0308 -0.0531 -0.4785
v  0.0531 -0.0308 -0.4785
v  0.0615 0.0000 -0.4785
v  0.0531 0.0308 -0.4785
v  0.0308 0.0531 -0.4785
v  0.0000 0.0615 -0.4785
v  -0.0308 0.0531 -0.4785
v  -0.0531 0.0308 -0.4785
v  -0.0615 0.0000 -0.4785
v  0.0000 0.0308 -0.4785
v  0.0000 0.0531 -0.4785
v  0.0000 0.0000 -0.4785
v  0.0000 -0.0308 -0.4785
v  0.0000 -0.0531 -0.4785
# 190 vertices

vn 0.9525 0.0006 -0.3044
vn 0.9525 -0.0006 0.3044
vn 0.8222 0.4767 0.3110
vn 0.8226 0.4762 -0.3106
vn 0.8222 -0.4767 -0.3110
vn 0.8226 -0.4762 0.3106
vn 0.4762 -0.8226 -0.3106
vn 0.4767 -0.8222 0.3110
vn -0.0000 -0.9527 -0.3041
vn -0.0000 -0.9524 0.3048
vn -0.4767 -0.8222 0.3110
vn -0.4762 -0.8226 -0.3106
vn -0.8226 -0.4762 0.3106
vn -0.8222 -0.4767 -0.3110
vn -0.9525 -0.0006 0.3044
vn -0.9525 0.0006 -0.3044
vn -0.8222 0.4767 0.3110
vn -0.8226 0.4762 -0.3106
vn -0.4762 0.8226 0.3106
vn -0.4767 0.8222 -0.3110
vn -0.0000 0.9527 0.3041
vn -0.0000 0.9524 -0.3048
vn 0.4767 0.8222 -0.3110
vn 0.4762 0.8226 0.3106
vn 0.9637 0.0000 -0.2668
vn 0.8336 0.4804 -0.2725
vn 0.8338 -0.4806 -0.2717
vn 0.4804 -0.8336 -0.2725
vn -0.0000 -0.9635 -0.2676
vn -0.4804 -0.8336 -0.2725
vn -0.8338 -0.4806 -0.2717
vn -0.9637 0.0000 -0.2668
vn -0.8336 0.4804 -0.2725
vn -0.4806 0.8338 -0.2717
vn -0.0000 0.9640 -0.2661
vn 0.4806 0.8338 -0.2717
vn 0.9989 -0.0001 0.0464
vn 0.8637 0.5018 0.0468
vn 0.8638 -0.5017 0.0459
vn 0.5018 -0.8637 0.0468
vn -0.0000 -0.9989 0.0473
vn -0.5018 -0.8637 0.0468
vn -0.8638 -0.5017 0.0459
vn -0.9989 -0.0001 0.0464
vn -0.8637 0.5018 0.0468
vn -0.5017 0.8638 0.0459
vn -0.0000 0.9990 0.0455
vn 0.5017 0.8638 0.0459
vn 0.9946 0.0004 0.1038
vn 0.8618 0.4967 0.1032
vn 0.8615 -0.4971 0.1036
vn 0.4967 -0.8618 0.1032
vn -0.0000 -0.9946 0.1034
vn -0.4967 -0.8618 0.1032
vn -0.8615 -0.4971 0.1036
vn -0.9946 0.0004 0.1038
vn -0.8618 0.4967 0.1032
vn -0.4971 0.8615 0.1036
vn -0.0000 0.9946 0.1042
vn 0.4971 0.8615 0.1036
vn 0.9884 -0.0000 0.1516
vn 0.8564 0.4936 0.1514
vn 0.8564 -0.4936 0.1516
vn 0.4936 -0.8564 0.1514
vn -0.0000 -0.9885 0.1514
vn -0.4936 -0.8564 0.1514
vn -0.8564 -0.4936 0.1516
vn -0.9884 -0.0000 0.1516
vn -0.8564 0.4936 0.1514
vn -0.4936 0.8564 0.1516
vn -0.0000 0.9884 0.1518
vn 0.4936 0.8564 0.1516
vn 0.9840 0.0002 0.1780
vn 0.8522 0.4920 0.1780
vn 0.8522 -0.4922 0.1774
vn 0.4920 -0.8522 0.1780
vn -0.0000 -0.9839 0.1786
vn -0.4920 -0.8522 0.1780
vn -0.8522 -0.4922 0.1774
vn -0.9840 0.0002 0.1780
vn -0.8522 0.4920 0.1780
vn -0.4922 0.8522 0.1774
vn -0.0000 0.9841 0.1774
vn 0.4922 0.8522 0.1774
vn 0.9188 -0.0008 0.3947
vn 0.7963 0.4540 0.3997
vn 0.7959 -0.4530 0.4018
vn 0.4540 -0.7963 0.3997
vn 0.0000 -0.9198 0.3924
vn -0.4540 -0.7963 0.3997
vn -0.7959 -0.4530 0.4018
vn -0.9188 -0.0008 0.3947
vn -0.7963 0.4540 0.3997
vn -0.4530 0.7959 0.4018
vn -0.0000 0.9179 0.3969
vn 0.4530 0.7959 0.4018
vn 0.6606 -0.0028 0.7507
vn 0.5675 0.3251 0.7565
vn 0.5702 -0.3234 0.7551
vn 0.3251 -0.5675 0.7565
vn 0.0000 -0.6591 0.7521
vn -0.3251 -0.5675 0.7565
vn -0.5702 -0.3234 0.7551
vn -0.6606 -0.0028 0.7507
vn -0.5675 0.3251 0.7565
vn -0.3234 0.5702 0.7551
vn -0.0000 0.6621 0.7494
vn 0.3234 0.5702 0.7551
vn 0.2657 -0.0002 0.9640
vn 0.2299 0.1354 0.9637
vn 0.2302 -0.1353 0.9637
vn 0.1354 -0.2299 0.9637
vn -0.0000 -0.2656 0.9641
vn -0.1354 -0.2299 0.9637
vn -0.2302 -0.1353 0.9637
vn -0.2657 -0.0002 0.9640
vn -0.2299 0.1354 0.9637
vn -0.1353 0.2302 0.9637
vn -0.0000 0.2659 0.9640
vn 0.1353 0.2302 0.9637
vn 0.0000 -0.0000 1.0000
vn -0.8347 -0.4810 0.2681
vn -0.4813 -0.8347 0.2676
vn -0.0000 -0.9651 0.2620
vn 0.4813 -0.8347 0.2676
vn 0.8347 -0.4810 0.2681
vn 0.9649 -0.0003 0.2625
vn 0.8347 0.4813 0.2676
vn 0.4810 0.8347 0.2681
vn -0.0000 0.9648 0.2630
vn -0.4810 0.8347 0.2681
vn -0.8347 0.4813 0.2676
vn -0.9649 -0.0003 0.2625
vn -0.8647 -0.4999 -0.0492
vn -0.5000 -0.8647 -0.0486
vn -0.0000 -0.9988 -0.0490
vn 0.5000 -0.8647 -0.0486
vn 0.8647 -0.4999 -0.0492
vn 0.9988 -0.0001 -0.0495
vn 0.8647 0.5000 -0.0486
vn 0.4999 0.8647 -0.0492
vn -0.0000 0.9987 -0.0500
vn -0.4999 0.8647 -0.0492
vn -0.8647 0.5000 -0.0486
vn -0.9988 -0.0001 -0.0495
vn -0.8622 -0.4973 -0.0959
vn -0.4975 -0.8621 -0.0963
vn -0.0000 -0.9953 -0.0972
vn 0.4975 -0.8621 -0.0963
vn 0.8622 -0.4973 -0.0959
vn 0.9953 -0.0002 -0.0968
vn 0.8621 0.4975 -0.0963
vn 0.4973 0.8622 -0.0959
vn -0.0000 0.9953 -0.0964
vn -0.4973 0.8622 -0.0959
vn -0.8621 0.4975 -0.0963
vn -0.9953 -0.0002 -0.0968
vn -0.7810 -0.4513 -0.4316
vn -0.4506 -0.7812 -0.4320
vn -0.0000 -0.9030 -0.4296
vn 0.4506 -0.7812 -0.4320
vn 0.7810 -0.4513 -0.4316
vn 0.9032 0.0007 -0.4292
vn 0.7812 0.4506 -0.4320
vn 0.4513 0.7810 -0.4316
vn -0.0000 0.9034 -0.4288
vn -0.4513 0.7810 -0.4316
vn -0.7812 0.4506 -0.4320
vn -0.9032 0.0007 -0.4292
vn -0.3629 -0.2117 -0.9075
vn -0.2110 -0.3639 -0.9072
vn 0.0000 -0.4256 -0.9049
vn 0.2110 -0.3639 -0.9072
vn 0.3629 -0.2117 -0.9075
vn 0.4251 0.0011 -0.9052
vn 0.3639 0.2110 -0.9072
vn 0.2117 0.3629 -0.9075
vn -0.0000 0.4246 -0.9054
vn -0.2117 0.3629 -0.9075
vn -0.3639 0.2110 -0.9072
vn -0.4251 0.0011 -0.9052
vn 0.0000 0.0000 -1.0000
# 182 vertex normals

vt -1.4905 0.5000 0.9522
vt -1.4905 0.5000 0.9373
vt -1.5551 0.7395 0.9373
vt -1.5551 0.7395 0.9522
vt -1.5551 0.2605 0.9522
vt -1.5551 0.2605 0.9373
vt -1.7319 0.0837 0.9522
vt -1.7319 0.0837 0.9373
vt -1.9715 0.0190 0.9522
vt -1.9715 0.0190 0.9373
vt -2.2110 0.0837 0.9373
vt -2.2110 0.0837 0.9522
vt -2.3878 0.2605 0.9373
vt -2.3878 0.2605 0.9522
vt -2.4525 0.5000 0.9373
vt -2.4525 0.5000 0.9522
vt -2.3878 0.7395 0.9373
vt -2.3878 0.7395 0.9522
vt -2.2110 0.9163 0.9373
vt -2.2110 0.9163 0.9522
vt -1.9715 0.9810 0.9373
vt -1.9715 0.9810 0.9522
vt -1.7319 0.9163 0.9522
vt -1.7319 0.9163 0.9373
vt -1.4715 0.5000 0.9579
vt -1.5380 0.7490 0.9579
vt -1.5380 0.2510 0.9579
vt -1.7224 0.0665 0.9579
vt -1.9715 0.0000 0.9579
vt -2.2205 0.0665 0.9579
vt -2.4049 0.2510 0.9579
vt -2.4715 0.5000 0.9579
vt -2.4049 0.7490 0.9579
vt -2.2205 0.9335 0.9579
vt -1.9715 1.0000 0.9579
vt -1.7224 0.9335 0.9579
vt -1.4848 0.5000 1.0811
vt -1.5513 0.7433 1.0811
vt -1.5513 0.2567 1.0811
vt -1.7281 0.0798 1.0811
vt -1.9715 0.0133 1.0811
vt -2.2148 0.0798 1.0811
vt -2.3916 0.2567 1.0811
vt -2.4582 0.5000 1.0811
vt -2.3916 0.7433 1.0811
vt -2.2148 0.9202 1.0811
vt -1.9715 0.9867 1.0811
vt -1.7281 0.9202 1.0811
vt -1.5285 0.5000 1.2043
vt -1.5875 0.7205 1.2043
vt -1.5875 0.2795 1.2043
vt -1.7510 0.1160 1.2043
vt -1.9715 0.0570 1.2043
vt -2.1920 0.1160 1.2043
vt -2.3555 0.2795 1.2043
vt -2.4144 0.5000 1.2043
vt -2.3555 0.7205 1.2043
vt -2.1920 0.8840 1.2043
vt -1.9715 0.9430 1.2043
vt -1.7510 0.8840 1.2043
vt -1.6141 0.5000 1.3275
vt -1.6616 0.6787 1.3275
vt -1.6616 0.3213 1.3275
vt -1.7928 0.1901 1.3275
vt -1.9715 0.1426 1.3275
vt -2.1502 0.1901 1.3275
vt -2.2814 0.3213 1.3275
vt -2.3289 0.5000 1.3275
vt -2.2814 0.6787 1.3275
vt -2.1502 0.8099 1.3275
vt -1.9715 0.8574 1.3275
vt -1.7928 0.8099 1.3275
vt -1.7167 0.5000 1.4507
vt -1.7510 0.6274 1.4507
vt -1.7510 0.3726 1.4507
vt -1.8441 0.2795 1.4507
vt -1.9715 0.2452 1.4507
vt -2.0989 0.2795 1.4507
vt -2.1920 0.3726 1.4507
vt -2.2262 0.5000 1.4507
vt -2.1920 0.6274 1.4507
vt -2.0989 0.7205 1.4507
vt -1.9715 0.7548 1.4507
vt -1.8441 0.7205 1.4507
vt -1.8365 0.5000 1.5738
vt -1.8536 0.5684 1.5738
vt -1.8536 0.4316 1.5738
vt -1.9030 0.3821 1.5738
vt -1.9715 0.3650 1.5738
vt -2.0399 0.3821 1.5738
vt -2.0894 0.4316 1.5738
vt -2.1065 0.5000 1.5738
vt -2.0894 0.5684 1.5738
vt -2.0399 0.6179 1.5738
vt -1.9715 0.6350 1.5738
vt -1.9030 0.6179 1.5738
vt -1.8707 0.5000 1.5830
vt -1.8840 0.5494 1.5830
vt -1.8840 0.4506 1.5830
vt -1.9221 0.4125 1.5830
vt -1.9715 0.3992 1.5830
vt -2.0209 0.4125 1.5830
vt -2.0589 0.4506 1.5830
vt -2.0722 0.5000 1.5830
vt -2.0589 0.5494 1.5830
vt -2.0209 0.5875 1.5830
vt -1.9715 0.6008 1.5830
vt -1.9221 0.5875 1.5830
vt -1.9316 0.5000 1.5891
vt -1.9373 0.5209 1.5891
vt -1.9373 0.4791 1.5891
vt -1.9506 0.4658 1.5891
vt -1.9715 0.4601 1.5891
vt -1.9924 0.4658 1.5891
vt -2.0057 0.4791 1.5891
vt -2.0114 0.5000 1.5891
vt -2.0057 0.5209 1.5891
vt -1.9924 0.5342 1.5891
vt -1.9715 0.5399 1.5891
vt -1.9506 0.5342 1.5891
vt -1.9715 0.5209 1.5891
vt -1.9715 0.5342 1.5891
vt -1.9715 0.5000 1.5891
vt -1.9715 0.4791 1.5891
vt -1.9715 0.4658 1.5891
vt -2.4049 0.2510 0.9315
vt -2.2205 0.0665 0.9315
vt -1.9715 0.0000 0.9315
vt -1.7224 0.0665 0.9315
vt -1.5380 0.2510 0.9315
vt -1.4715 0.5000 0.9315
vt -1.5380 0.7490 0.9315
vt -1.7224 0.9335 0.9315
vt -1.9715 1.0000 0.9315
vt -2.2205 0.9335 0.9315
vt -2.4049 0.7490 0.9315
vt -2.4715 0.5000 0.9315
vt -2.3878 0.2605 0.8091
vt -2.2110 0.0837 0.8091
vt -1.9715 0.0190 0.8091
vt -1.7319 0.0837 0.8091
vt -1.5551 0.2605 0.8091
vt -1.4905 0.5000 0.8091
vt -1.5551 0.7395 0.8091
vt -1.7319 0.9163 0.8091
vt -1.9715 0.9810 0.8091
vt -2.2110 0.9163 0.8091
vt -2.3878 0.7395 0.8091
vt -2.4525 0.5000 0.8091
vt -2.3669 0.2719 0.7364
vt -2.1996 0.1046 0.7364
vt -1.9715 0.0437 0.7364
vt -1.7433 0.1046 0.7364
vt -1.5760 0.2719 0.7364
vt -1.5152 0.5000 0.7364
vt -1.5760 0.7281 0.7364
vt -1.7433 0.8954 0.7364
vt -1.9715 0.9563 0.7364
vt -2.1996 0.8954 0.7364
vt -2.3669 0.7281 0.7364
vt -2.4278 0.5000 0.7364
vt -2.2909 0.3156 0.5987
vt -2.1559 0.1806 0.5987
vt -1.9715 0.1312 0.5987
vt -1.7871 0.1806 0.5987
vt -1.6521 0.3156 0.5987
vt -1.6027 0.5000 0.5987
vt -1.6521 0.6844 0.5987
vt -1.7871 0.8194 0.5987
vt -1.9715 0.8688 0.5987
vt -2.1559 0.8194 0.5987
vt -2.2909 0.6844 0.5987
vt -2.3403 0.5000 0.5987
vt -2.2471 0.3403 0.5891
vt -2.1312 0.2243 0.5891
vt -1.9715 0.1806 0.5891
vt -1.8118 0.2243 0.5891
vt -1.6958 0.3403 0.5891
vt -1.6521 0.5000 0.5891
vt -1.6958 0.6597 0.5891
vt -1.8118 0.7757 0.5891
vt -1.9715 0.8194 0.5891
vt -2.1312 0.7757 0.5891
vt -2.2471 0.6597 0.5891
vt -2.2909 0.5000 0.5891
vt -1.9715 0.6597 0.5891
vt -1.9715 0.7757 0.5891
vt -1.9715 0.5000 0.5891
vt -1.9715 0.3403 0.5891
vt -1.9715 0.2243 0.5891
# 190 texture coords

g default
usemtl default_mso
s 1
f 1/1/1 2/2/2 3/3/3 4/4/4 
f 5/5/5 6/6/6 2/2/2 1/1/1 
f 7/7/7 8/8/8 6/6/6 5/5/5 
f 9/9/9 10/10/10 8/8/8 7/7/7 
f 11/11/11 10/10/10 9/9/9 12/12/12 
f 13/13/13 11/11/11 12/12/12 14/14/14 
f 15/15/15 13/13/13 14/14/14 16/16/16 
f 17/17/17 15/15/15 16/16/16 18/18/18 
f 19/19/19 17/17/17 18/18/18 20/20/20 
f 21/21/21 19/19/19 20/20/20 22/22/22 
f 23/23/23 24/24/24 21/21/21 22/22/22 
f 4/4/4 3/3/3 24/24/24 23/23/23 
f 25/25/25 1/1/1 4/4/4 26/26/26 
f 27/27/27 5/5/5 1/1/1 25/25/25 
f 28/28/28 7/7/7 5/5/5 27/27/27 
f 29/29/29 9/9/9 7/7/7 28/28/28 
f 12/12/12 9/9/9 29/29/29 30/30/30 
f 14/14/14 12/12/12 30/30/30 31/31/31 
f 16/16/16 14/14/14 31/31/31 32/32/32 
f 18/18/18 16/16/16 32/32/32 33/33/33 
f 20/20/20 18/18/18 33/33/33 34/34/34 
f 22/22/22 20/20/20 34/34/34 35/35/35 
f 36/36/36 23/23/23 22/22/22 35/35/35 
f 26/26/26 4/4/4 23/23/23 36/36/36 
f 37/37/37 25/25/25 26/26/26 38/38/38 
f 39/39/39 27/27/27 25/25/25 37/37/37 
f 40/40/40 28/28/28 27/27/27 39/39/39 
f 41/41/41 29/29/29 28/28/28 40/40/40 
f 30/30/30 29/29/29 41/41/41 42/42/42 
f 31/31/31 30/30/30 42/42/42 43/43/43 
f 32/32/32 31/31/31 43/43/43 44/44/44 
f 33/33/33 32/32/32 44/44/44 45/45/45 
f 34/34/34 33/33/33 45/45/45 46/46/46 
f 35/35/35 34/34/34 46/46/46 47/47/47 
f 48/48/48 36/36/36 35/35/35 47/47/47 
f 38/38/38 26/26/26 36/36/36 48/48/48 
f 49/49/49 37/37/37 38/38/38 50/50/50 
f 51/51/51 39/39/39 37/37/37 49/49/49 
f 52/52/52 40/40/40 39/39/39 51/51/51 
f 53/53/53 41/41/41 40/40/40 52/52/52 
f 42/42/42 41/41/41 53/53/53 54/54/54 
f 43/43/43 42/42/42 54/54/54 55/55/55 
f 44/44/44 43/43/43 55/55/55 56/56/56 
f 45/45/45 44/44/44 56/56/56 57/57/57 
f 46/46/46 45/45/45 57/57/57 58/58/58 
f 47/47/47 46/46/46 58/58/58 59/59/59 
f 60/60/60 48/48/48 47/47/47 59/59/59 
f 50/50/50 38/38/38 48/48/48 60/60/60 
f 61/61/61 49/49/49 50/50/50 62/62/62 
f 63/63/63 51/51/51 49/49/49 61/61/61 
f 64/64/64 52/52/52 51/51/51 63/63/63 
f 65/65/65 53/53/53 52/52/52 64/64/64 
f 54/54/54 53/53/53 65/65/65 66/66/66 
f 55/55/55 54/54/54 66/66/66 67/67/67 
f 56/56/56 55/55/55 67/67/67 68/68/68 
f 57/57/57 56/56/56 68/68/68 69/69/69 
f 58/58/58 57/57/57 69/69/69 70/70/70 
f 59/59/59 58/58/58 70/70/70 71/71/71 
f 72/72/72 60/60/60 59/59/59 71/71/71 
f 62/62/62 50/50/50 60/60/60 72/72/72 
f 73/73/73 61/61/61 62/62/62 74/74/74 
f 75/75/75 63/63/63 61/61/61 73/73/73 
f 76/76/76 64/64/64 63/63/63 75/75/75 
f 77/77/77 65/65/65 64/64/64 76/76/76 
f 66/66/66 65/65/65 77/77/77 78/78/78 
f 67/67/67 66/66/66 78/78/78 79/79/79 
f 68/68/68 67/67/67 79/79/79 80/80/80 
f 69/69/69 68/68/68 80/80/80 81/81/81 
f 70/70/70 69/69/69 81/81/81 82/82/82 
f 71/71/71 70/70/70 82/82/82 83/83/83 
f 84/84/84 72/72/72 71/71/71 83/83/83 
f 74/74/74 62/62/62 72/72/72 84/84/84 
f 85/85/85 73/73/73 74/74/74 86/86/86 
f 87/87/87 75/75/75 73/73/73 85/85/85 
f 88/88/88 76/76/76 75/75/75 87/87/87 
f 89/89/89 77/77/77 76/76/76 88/88/88 
f 78/78/78 77/77/77 89/89/89 90/90/90 
f 79/79/79 78/78/78 90/90/90 91/91/91 
f 80/80/80 79/79/79 91/91/91 92/92/92 
f 81/81/81 80/80/80 92/92/92 93/93/93 
f 82/82/82 81/81/81 93/93/93 94/94/94 
f 83/83/83 82/82/82 94/94/94 95/95/95 
f 96/96/96 84/84/84 83/83/83 95/95/95 
f 86/86/86 74/74/74 84/84/84 96/96/96 
f 97/97/97 85/85/85 86/86/86 98/98/98 
f 99/99/99 87/87/87 85/85/85 97/97/97 
f 100/100/100 88/88/88 87/87/87 99/99/99 
f 101/101/101 89/89/89 88/88/88 100/100/100 
f 90/90/90 89/89/89 101/101/101 102/102/102 
f 91/91/91 90/90/90 102/102/102 103/103/103 
f 92/92/92 91/91/91 103/103/103 104/104/104 
f 93/93/93 92/92/92 104/104/104 105/105/105 
f 94/94/94 93/93/93 105/105/105 106/106/106 
f 95/95/95 94/94/94 106/106/106 107/107/107 
f 108/108/108 96/96/96 95/95/95 107/107/107 
f 98/98/98 86/86/86 96/96/96 108/108/108 
f 109/109/109 97/97/97 98/98/98 110/110/110 
f 111/111/111 99/99/99 97/97/97 109/109/109 
f 112/112/112 100/100/100 99/99/99 111/111/111 
f 113/113/113 101/101/101 100/100/100 112/112/112 
f 102/102/102 101/101/101 113/113/113 114/114/114 
f 103/103/103 102/102/102 114/114/114 115/115/115 
f 104/104/104 103/103/103 115/115/115 116/116/116 
f 105/105/105 104/104/104 116/116/116 117/117/117 
f 106/106/106 105/105/105 117/117/117 118/118/118 
f 107/107/107 106/106/106 118/118/118 119/119/119 
f 120/120/120 108/108/108 107/107/107 119/119/119 
f 110/110/110 98/98/98 108/108/108 120/120/120 
f 118/118/118 117/117/117 121/121/121 122/122/121 
f 117/117/117 116/116/116 123/123/121 121/121/121 
f 116/116/116 115/115/115 124/124/121 123/123/121 
f 115/115/115 114/114/114 125/125/121 124/124/121 
f 121/121/121 110/110/110 120/120/120 122/122/121 
f 123/123/121 109/109/109 110/110/110 121/121/121 
f 124/124/121 111/111/111 109/109/109 123/123/121 
f 125/125/121 112/112/112 111/111/111 124/124/121 
f 119/119/119 118/118/118 122/122/121 120/120/120 
f 125/125/121 114/114/114 113/113/113 112/112/112 
f 126/126/122 127/127/123 11/11/11 13/13/13 
f 127/127/123 128/128/124 10/10/10 11/11/11 
f 10/10/10 128/128/124 129/129/125 8/8/8 
f 8/8/8 129/129/125 130/130/126 6/6/6 
f 6/6/6 130/130/126 131/131/127 2/2/2 
f 2/2/2 131/131/127 132/132/128 3/3/3 
f 3/3/3 132/132/128 133/133/129 24/24/24 
f 24/24/24 133/133/129 134/134/130 21/21/21 
f 134/134/130 135/135/131 19/19/19 21/21/21 
f 135/135/131 136/136/132 17/17/17 19/19/19 
f 136/136/132 137/137/133 15/15/15 17/17/17 
f 137/137/133 126/126/122 13/13/13 15/15/15 
f 138/138/134 139/139/135 127/127/123 126/126/122 
f 139/139/135 140/140/136 128/128/124 127/127/123 
f 128/128/124 140/140/136 141/141/137 129/129/125 
f 129/129/125 141/141/137 142/142/138 130/130/126 
f 130/130/126 142/142/138 143/143/139 131/131/127 
f 131/131/127 143/143/139 144/144/140 132/132/128 
f 132/132/128 144/144/140 145/145/141 133/133/129 
f 133/133/129 145/145/141 146/146/142 134/134/130 
f 146/146/142 147/147/143 135/135/131 134/134/130 
f 147/147/143 148/148/144 136/136/132 135/135/131 
f 148/148/144 149/149/145 137/137/133 136/136/132 
f 149/149/145 138/138/134 126/126/122 137/137/133 
f 150/150/146 151/151/147 139/139/135 138/138/134 
f 151/151/147 152/152/148 140/140/136 139/139/135 
f 140/140/136 152/152/148 153/153/149 141/141/137 
f 141/141/137 153/153/149 154/154/150 142/142/138 
f 142/142/138 154/154/150 155/155/151 143/143/139 
f 143/143/139 155/155/151 156/156/152 144/144/140 
f 144/144/140 156/156/152 157/157/153 145/145/141 
f 145/145/141 157/157/153 158/158/154 146/146/142 
f 158/158/154 159/159/155 147/147/143 146/146/142 
f 159/159/155 160/160/156 148/148/144 147/147/143 
f 160/160/156 161/161/157 149/149/145 148/148/144 
f 161/161/157 150/150/146 138/138/134 149/149/145 
f 162/162/158 163/163/159 151/151/147 150/150/146 
f 163/163/159 164/164/160 152/152/148 151/151/147 
f 152/152/148 164/164/160 165/165/161 153/153/149 
f 153/153/149 165/165/161 166/166/162 154/154/150 
f 154/154/150 166/166/162 167/167/163 155/155/151 
f 155/155/151 167/167/163 168/168/164 156/156/152 
f 156/156/152 168/168/164 169/169/165 157/157/153 
f 157/157/153 169/169/165 170/170/166 158/158/154 
f 170/170/166 171/171/167 159/159/155 158/158/154 
f 171/171/167 172/172/168 160/160/156 159/159/155 
f 172/172/168 173/173/169 161/161/157 160/160/156 
f 173/173/169 162/162/158 150/150/146 161/161/157 
f 174/174/170 175/175/171 163/163/159 162/162/158 
f 175/175/171 176/176/172 164/164/160 163/163/159 
f 164/164/160 176/176/172 177/177/173 165/165/161 
f 165/165/161 177/177/173 178/178/174 166/166/162 
f 166/166/162 178/178/174 179/179/175 167/167/163 
f 167/167/163 179/179/175 180/180/176 168/168/164 
f 168/168/164 180/180/176 181/181/177 169/169/165 
f 169/169/165 181/181/177 182/182/178 170/170/166 
f 182/182/178 183/183/179 171/171/167 170/170/166 
f 183/183/179 184/184/180 172/172/168 171/171/167 
f 184/184/180 185/185/181 173/173/169 172/172/168 
f 185/185/181 174/174/170 162/162/158 173/173/169 
f 186/186/182 184/184/180 183/183/179 187/187/182 
f 188/188/182 185/185/181 184/184/180 186/186/182 
f 189/189/182 174/174/170 185/185/181 188/188/182 
f 190/190/182 175/175/171 174/174/170 189/189/182 
f 181/181/177 180/180/176 186/186/182 187/187/182 
f 180/180/176 179/179/175 188/188/182 186/186/182 
f 179/179/175 178/178/174 189/189/182 188/188/182 
f 178/178/174 177/177/173 190/190/182 189/189/182 
f 182/182/178 181/181/177 187/187/182 183/183/179 
f 177/177/173 176/176/172 175/175/171 190/190/182 
# 188 polygons

