# 3ds Max Wavefront OBJ Exporter v0.97b - (c)2007 guruware
# File Created: 31.08.2014 15:39:17

mtllib pod.mtl

#
# object Box001
#

v  -0.0250 0.0000 0.5000
v  -0.0250 0.0000 -0.5000
v  0.0250 0.0000 -0.5000
v  0.0250 0.0000 0.5000
v  -0.0250 0.2568 0.3590
v  0.0250 0.2568 0.3590
v  0.0250 0.2568 -0.4496
v  -0.0250 0.2568 -0.4496
v  0.0250 0.0982 0.4640
v  -0.0250 0.0982 0.4640
v  0.0250 0.0982 -0.5000
v  -0.0250 0.0982 -0.5000
# 12 vertices

vn 0.0000 -1.0000 -0.0000
vn 0.0000 1.0000 -0.0000
vn 0.0000 0.3447 0.9387
vn 0.0000 0.4514 0.8923
vn 0.0000 0.5519 0.8339
vn 1.0000 0.0000 -0.0000
vn 0.0000 0.0000 -1.0000
vn 0.0000 0.1533 -0.9882
vn 0.0000 0.3029 -0.9530
vn -1.0000 0.0000 -0.0000
# 10 vertex normals

vt 0.7069 0.7809 0.0000
vt 0.7063 0.1899 0.0000
vt 0.7461 0.1894 0.0000
vt 0.7468 0.7811 0.0000
vt 0.4773 0.6999 0.0000
vt 0.4447 0.6997 0.0000
vt 0.4446 0.2197 0.0000
vt 0.4781 0.2196 0.0000
vt 0.4787 0.9097 0.0000
vt 0.4454 0.9053 0.0000
vt 0.4447 0.8391 0.0000
vt 0.4783 0.8384 0.0000
vt 0.4436 0.7172 0.0000
vt 0.4780 0.7166 0.0000
vt 0.2531 0.7837 0.0000
vt 0.2530 0.1897 0.0000
vt 0.3259 0.1897 0.0000
vt 0.3260 0.7623 0.0000
vt 0.4453 0.0681 0.0000
vt 0.4781 0.0678 0.0000
vt 0.4782 0.1121 0.0000
vt 0.4446 0.1107 0.0000
vt 0.4781 0.2036 0.0000
vt 0.4453 0.2039 0.0000
vt 0.6687 0.1896 0.0000
vt 0.6687 0.7815 0.0000
vt 0.5958 0.7601 0.0000
vt 0.5958 0.1896 0.0000
# 28 texture coords

g Box001
usemtl 01___Default
s 2
f 1/1/1 2/2/1 3/3/1 
f 3/3/1 4/4/1 1/1/1 
s 4
f 5/5/2 6/6/2 7/7/2 
f 7/7/2 8/8/2 5/5/2 
s 8
f 1/9/3 4/10/3 9/11/4 
f 9/11/4 10/12/4 1/9/3 
f 10/12/4 9/11/4 6/13/5 
f 6/13/5 5/14/5 10/12/4 
s 16
f 4/15/6 3/16/6 11/17/6 
f 11/17/6 9/18/6 4/15/6 
f 9/18/6 11/17/6 7/7/6 
f 7/7/6 6/6/6 9/18/6 
s 32
f 3/19/7 2/20/7 12/21/8 
f 12/21/8 11/22/8 3/19/7 
f 11/22/8 12/21/8 8/23/9 
f 8/23/9 7/24/9 11/22/8 
s 64
f 2/25/10 1/26/10 10/27/10 
f 10/27/10 12/28/10 2/25/10 
f 12/28/10 10/27/10 5/5/10 
f 5/5/10 8/8/10 12/28/10 
# 20 faces

