# 3ds Max Wavefront OBJ Exporter v0.97b - (c)2007 guruware
# File Created: 14.09.2014 19:20:34

mtllib LaserBeam.mtl

#
# object Cylinder001
#

v  0.0000 0.0000 -0.0000
v  0.0424 0.0424 0.0000
v  0.0600 0.0000 -0.0000
v  -0.0000 0.0600 0.0000
v  -0.0424 0.0424 0.0000
v  -0.0600 -0.0000 -0.0000
v  -0.0424 -0.0424 -0.0000
v  0.0000 -0.0600 -0.0000
v  0.0424 -0.0424 -0.0000
v  0.0424 0.0424 1.0000
v  0.0600 -0.0000 1.0000
v  -0.0000 0.0600 1.0000
v  -0.0424 0.0424 1.0000
v  -0.0600 -0.0000 1.0000
v  -0.0424 -0.0424 1.0000
v  0.0000 -0.0600 1.0000
v  0.0424 -0.0424 1.0000
v  0.0000 -0.0000 1.0000
# 18 vertices

vn 0.0000 0.0000 -1.0000
vn 1.0000 -0.0000 -0.0000
vn 0.7071 0.7071 0.0000
vn 1.0000 0.0000 0.0000
vn -0.0000 1.0000 0.0000
vn 0.0000 1.0000 0.0000
vn -0.7071 0.7071 0.0000
vn -1.0000 -0.0000 -0.0000
vn -1.0000 0.0000 0.0000
vn -0.7071 -0.7071 -0.0000
vn 0.0000 -1.0000 -0.0000
vn -0.0000 -1.0000 -0.0000
vn 0.7071 -0.7071 -0.0000
vn 0.0000 -0.0000 1.0000
# 14 vertex normals

vt 0.5000 0.0000 0.0000
vt 0.8750 0.0000 1.0000
vt 0.7500 0.0000 1.0000
vt 0.0000 0.0000 1.0000
vt -0.1250 0.0000 1.0000
vt 0.1250 0.0000 1.0000
vt 0.2500 0.0000 1.0000
vt 0.3750 0.0000 1.0000
vt 0.5000 0.0000 1.0000
vt 0.6250 0.0000 1.0000
vt 0.8750 1.0000 1.0000
vt 0.7500 1.0000 1.0000
vt 0.0000 1.0000 1.0000
vt -0.1250 1.0000 1.0000
vt 0.1250 1.0000 1.0000
vt 0.2500 1.0000 1.0000
vt 0.3750 1.0000 1.0000
vt 0.5000 1.0000 1.0000
vt 0.6250 1.0000 1.0000
vt 0.5000 1.0000 0.0000
# 20 texture coords

g Cylinder001
usemtl wire_108008136
s 1
f 1/1/1 2/2/1 3/3/1 
f 1/1/1 4/4/1 2/5/1 
f 1/1/1 5/6/1 4/4/1 
f 1/1/1 6/7/1 5/6/1 
f 1/1/1 7/8/1 6/7/1 
f 1/1/1 8/9/1 7/8/1 
f 1/1/1 9/10/1 8/9/1 
f 1/1/1 3/3/1 9/10/1 
s 8
f 3/3/2 10/11/3 11/12/4 
f 3/3/2 2/2/3 10/11/3 
f 2/5/3 12/13/5 10/14/3 
f 2/5/3 4/4/6 12/13/5 
f 4/4/6 13/15/7 12/13/5 
f 4/4/6 5/6/7 13/15/7 
f 5/6/7 14/16/8 13/15/7 
f 5/6/7 6/7/9 14/16/8 
f 6/7/9 15/17/10 14/16/8 
f 6/7/9 7/8/10 15/17/10 
f 7/8/10 16/18/11 15/17/10 
f 7/8/10 8/9/12 16/18/11 
f 8/9/12 17/19/13 16/18/11 
f 8/9/12 9/10/13 17/19/13 
f 9/10/13 11/12/4 17/19/13 
f 9/10/13 3/3/2 11/12/4 
s 1
f 18/20/14 11/12/14 10/11/14 
f 18/20/14 10/14/14 12/13/14 
f 18/20/14 12/13/14 13/15/14 
f 18/20/14 13/15/14 14/16/14 
f 18/20/14 14/16/14 15/17/14 
f 18/20/14 15/17/14 16/18/14 
f 18/20/14 16/18/14 17/19/14 
f 18/20/14 17/19/14 11/12/14 
# 32 faces

